<?xml version="1.0" encoding="iso-8859-1"?>
<!-- Uploaded to: SVG Repo, www.svgrepo.com, Generator: SVG Repo Mixer Tools -->
<svg height="800px" width="800px" version="1.1" id="Layer_1" xmlns="http://www.w3.org/2000/svg" xmlns:xlink="http://www.w3.org/1999/xlink" 
	 viewBox="0 0 512 512" xml:space="preserve">
<path style="fill:#FFDCE1;" d="M104.408,29.479c-0.995,10.511-9.85,18.389-20.199,18.4c-0.642-0.009-1.283-0.038-1.933-0.096
	l-7.859-0.757l31.601,31.601c7.821,7.821,7.917,20.439,0.315,28.384c-0.096,0.115-0.211,0.23-0.315,0.334
	c-3.972,3.972-9.171,5.954-14.36,5.954c-5.199-0.009-10.396-1.991-14.36-5.954L45.831,75.878l0.604,6.385
	c1.053,11.162-7.141,21.079-18.304,22.132c-0.651,0.057-1.302,0.096-1.933,0.096c-10.358,0-19.204-7.889-20.199-18.4l-5.908-62.27
	c-0.612-6.511,1.914-12.58,6.337-16.714c3.024-2.834,6.93-4.767,11.334-5.323c1.943-0.412,3.983-0.536,6.06-0.334l62.281,5.897
	C97.265,8.399,105.46,18.317,104.408,29.479z"/>
<path style="fill:#F4CED2;" d="M104.408,29.479c-0.995,10.511-9.85,18.389-20.199,18.4c-0.642-0.009-1.283-0.038-1.933-0.096
	l-7.859-0.757l31.601,31.601c7.821,7.821,7.917,20.439,0.315,28.384L6.428,7.107c3.024-2.834,6.93-4.767,11.334-5.323
	c1.943-0.412,3.983-0.536,6.06-0.334l62.281,5.897C97.265,8.399,105.46,18.317,104.408,29.479z"/>
<path style="fill:#F5888E;" d="M455.93,197.063c0,30.299-11.805,58.769-33.223,80.2L245.127,454.83
	c-3.953,3.967-9.152,5.957-14.351,5.957c-5.199,0-10.397-1.99-14.364-5.957c0,0,0,0-0.014-0.014L38.845,277.263
	c-21.417-21.431-33.223-49.902-33.223-80.2s11.805-58.769,33.223-80.187c44.216-44.229,116.171-44.229,160.387,0l31.544,31.53
	l31.544-31.53c44.216-44.229,116.171-44.229,160.387,0C444.125,138.294,455.93,166.764,455.93,197.063z"/>
<path style="fill:#F76976;" d="M455.93,197.063c0,30.299-11.805,58.769-33.223,80.2L245.127,454.83
	c-3.953,3.967-9.152,5.957-14.351,5.957V148.407l31.544-31.53c44.216-44.229,116.171-44.229,160.387,0
	C444.125,138.294,455.93,166.764,455.93,197.063z"/>
<path style="fill:#FFDCE1;" d="M493.606,413.489c11.162,1.053,19.357,10.97,18.304,22.132c-1.005,10.521-9.841,18.4-20.199,18.4
	c-0.642-0.009-1.293-0.028-1.933-0.096l-38.856-3.685l-0.613-0.057l3.619,38.235c1.063,11.153-7.132,21.069-18.294,22.123
	c-0.661,0.066-1.302,0.096-1.943,0.106c-10.349-0.009-19.194-7.879-20.199-18.4l-5.084-53.79l-0.967-0.967l0.459,4.901
	c1.063,11.153-7.132,21.069-18.294,22.123c-0.661,0.066-1.302,0.096-1.954,0.096c-10.339,0-19.193-7.879-20.19-18.389l-5.093-53.799
	L258.512,288.564c-7.936-7.936-7.936-20.782,0-28.719c0.336-0.336,0.689-0.67,1.044-0.967c7.974-6.941,20.074-6.634,27.675,0.967
	l102.096,102.096l58.251,5.524c11.162,1.053,19.357,10.97,18.304,22.132c-1.005,10.521-9.85,18.39-20.199,18.4
	c-0.642-0.009-1.293-0.028-1.943-0.106l-9.343-0.881l0.957,0.957L493.606,413.489z"/>
<path style="fill:#F4CED2;" d="M493.606,413.489c11.162,1.053,19.357,10.97,18.304,22.132c-1.005,10.521-9.841,18.4-20.199,18.4
	c-0.642-0.009-1.293-0.028-1.933-0.096l-38.856-3.685L259.556,258.876c7.974-6.941,20.074-6.634,27.675,0.967l102.096,102.096
	l58.251,5.524c11.162,1.053,19.357,10.97,18.304,22.132c-1.005,10.521-9.85,18.39-20.199,18.4c-0.642-0.009-1.293-0.028-1.943-0.106
	l-9.343-0.881l0.957,0.957L493.606,413.489z"/>
<path style="fill:#ED5A6C;" d="M252.904,313.992c-5.197,0-10.395-1.983-14.359-5.949c-7.931-7.929-7.931-20.788,0-28.719
	l39.006-39.006c7.929-7.929,20.788-7.929,28.719,0c7.931,7.929,7.931,20.788,0,28.719l-39.006,39.006
	C263.299,312.01,258.102,313.992,252.904,313.992z"/>
</svg>