<svg xmlns="http://www.w3.org/2000/svg" version="1.1" viewBox="-5.0 -10.0 110.0 135.0">
 <path d="m89.477 59.625c-2.2422-1.1328-4.5391-2.6094-6.7617-4.0391-1.5781-1.0156-3.0703-1.9766-4.4219-2.7305-11.25-6.2812-18.383-5.7461-24.863-3.918 0.015624-0.027344 0.039062-0.050781 0.058593-0.078125 0.96094-1.5508 1.082-3.3242 0.36328-5.2695-0.03125-0.078125-0.074218-0.15234-0.13281-0.21484-0.40625-0.43359-1.1562-0.50391-3.8125 0.42578-1.5 0.52344-3.0977 1.2031-3.7539 1.5039-2.8008 1.2969-4.8516 1.3438-6.8359 1.3906-2.6992 0.0625-5.4883 0.13281-9.7617 3.3438-6.1484 4.6211-11.754 6.5938-18.742 6.5938-0.35156 0-0.64062 0.28516-0.64062 0.64063 0 0.35156 0.28516 0.64062 0.64062 0.64062 7.2852 0 13.121-2.0508 19.512-6.8516 3.9453-2.9648 6.2969-3.0195 9.0234-3.0859 2.1133-0.050781 4.3008-0.10156 7.3398-1.5117 1.8594-0.85938 5.0859-2.0664 6.0664-2.1211 0.46094 1.4492 0.34375 2.707-0.35547 3.8438-2.3633 3.8203-10.445 4.7461-10.527 4.7539-0.14844 0.015625-0.28516 0.082032-0.39062 0.19141-2.1211 2.1797-4.6016 4.1758-8.3203 4.0195-0.35156-0.015625-0.65234 0.25781-0.66797 0.61328-0.015626 0.35156 0.25781 0.65234 0.61328 0.66797 0.14844 0.007812 0.29688 0.007812 0.44141 0.007812 0.14062 0 0.27344-0.011718 0.41016-0.015625-0.46094 0.41016-1 0.91797-1.6523 1.5508-1.1562 1.1289-3.1016 3.1328-3.3984 3.6992-0.55078 1.0508-0.35938 2.1406 0.50391 2.8477 0.51562 0.42187 1.2461 0.67578 2.0664 0.67578 0.039063 0 0.082032-0.007813 0.12109-0.011719-0.86328 0.97266-1.4141 1.832-1.4141 2.5938 0 1.4922 0.90625 2.5391 2.4219 2.793 0.23438 0.039062 0.48047 0.058593 0.73047 0.058593 0.94141 0 1.9375-0.27344 2.6328-0.76562 0.097656 0.15234 0.21484 0.30078 0.35547 0.44922 0.48828 0.51172 1.0859 0.71094 1.7188 0.71094 1.125 0 2.3633-0.62109 3.332-1.2266 0.011719 0.015625 0.015625 0.039063 0.03125 0.054688 0.6875 0.72266 1.5078 1.0938 2.4414 1.1094h0.054688c1.1836 0 2.4922-0.57422 3.9727-1.75-0.0625 0.3125-0.125 0.62109-0.18359 0.91797-0.25 1.2852-0.48828 2.5-0.8125 2.9531-0.20312 0.28906-0.13672 0.6875 0.14844 0.89062 0.28906 0.20313 0.6875 0.13672 0.89062-0.14844 0.48047-0.67578 0.72266-1.9023 1.0234-3.4492 0.76562-3.918 1.6484-7.1562 4.5234-6.9766-0.046875 5.5703-0.81641 9.4219-2.3477 11.758-0.69141 1.0547-5.8984 1.832-7.7031 1.6602-4.6797-0.45312-7.3359-1.9766-9.6797-3.3242-2.0352-1.168-3.957-2.2734-6.6914-2.2734-2.8438 0-7.1562 0.96484-10.625 1.7422-2.2734 0.50781-4.4258 0.98828-5.207 0.96484-0.35547-0.011719-0.64844 0.26562-0.66016 0.62109-0.011719 0.35156 0.26562 0.64844 0.62109 0.66016 0.94531 0.03125 2.9648-0.42578 5.5234-0.99609 3.4062-0.76172 7.6445-1.7109 10.348-1.7109 2.3945 0 4.0078 0.92969 6.0547 2.1016 2.457 1.4102 5.2422 3.0117 10.195 3.4883 0.15234 0.015625 0.35547 0.023438 0.59766 0.023438 2.1172 0 7.2148-0.59375 8.3008-2.2539 0.44922-0.6875 0.83594-1.4922 1.1641-2.4062 0.046875 0.011719 0.09375 0.027344 0.14453 0.027344h1.9883c0.62109 0 1.1719-0.24609 1.6367-0.72656 0.52344-0.54297 0.90234-1.375 1.1836-2.4062 0.089844 0.046876 0.17969 0.089844 0.26562 0.11719 0.47266 0.14844 0.92188 0.22266 1.3438 0.22266 0.68359 0 1.2969-0.19531 1.8281-0.58594 0.46875-0.34766 0.82812-0.82031 1.1016-1.3555 0.53906 0.28906 1.3281 0.68359 2.1602 0.68359 0.27344 0 0.55078-0.042969 0.82031-0.14844 0.68359-0.26562 1.1914-0.86328 1.5078-1.7773 0.42187-1.2188 1.707-2.7422 3.6406-4.332 3.1602 1.0742 7.0664 4.1133 11.578 7.6328 0.60937 0.47266 1.2266 0.95703 1.8594 1.4492 0.11719 0.089844 0.25391 0.13281 0.39063 0.13281 0.19141 0 0.37891-0.085937 0.50781-0.24609 0.21484-0.28125 0.16406-0.67969-0.11328-0.89844-0.62891-0.48828-1.25-0.97266-1.8555-1.4453-4.2969-3.3516-8.0586-6.2734-11.281-7.5859 0.027344-0.066406 0.046875-0.13281 0.050781-0.20312 0.078125-0.99609-0.67578-2.375-1.6484-3.0156-1.7344-1.1328-3.957-0.90234-6.25 0.58203 0.023437-0.12891 0.042968-0.26172 0.066406-0.39062 0.24219-1.3789 0.46875-2.6797 0.46875-4.1602 0-0.070313-0.011719-0.14062-0.035156-0.21094-0.16797-0.48047-1.2188-1.1445-1.5117-1.1914-4.0469-0.66406-5.0664 2.0586-5.4141 3.1367-1.4531-0.074219-2.793 0.47656-3.6562 1.5273-0.85156 1.0312-1.1445 2.3906-0.875 3.8281-2.8242-0.039063-4.1211 2.3555-4.8633 4.9219-1.8008 1.7539-3.3164 2.6484-4.4961 2.6484h-0.035157c-0.50781-0.007812-0.95703-0.1875-1.3594-0.54297 0.03125-0.0625 0.078125-0.13672 0.13281-0.21094 0.066406-0.058594 0.11719-0.12891 0.15234-0.20703 0.69531-0.89453 2.375-2.4609 4.3125-3.9922 0.007813-0.003906 0.011719-0.007813 0.019532-0.015625 1.4688-1.1602 3.0742-2.2969 4.5039-3.0977 0.30859-0.17188 0.41797-0.5625 0.24609-0.87109s-0.5625-0.41797-0.87109-0.24609c-0.64453 0.35938-1.375 0.82031-2.1445 1.3516-0.51953-0.96484-1.1641-1.7656-1.9531-2.3945 1.1758-0.71875 2.3516-1.3594 3.4609-1.8633 0.32031-0.14453 0.46484-0.52734 0.31641-0.84766-0.14453-0.32031-0.52734-0.46484-0.84766-0.31641-1.4219 0.64844-2.9492 1.5117-4.457 2.4727-0.003906 0.003906-0.007812 0.003906-0.007812 0.003906-0.62891 0.40234-1.2539 0.82031-1.8672 1.25-0.011719 0.007813-0.023438 0.015625-0.035156 0.023438-2.4453 1.7188-4.6875 3.582-6.1328 5.0742-0.51172 0.52734-1.7461 1.8047-1.7773 3.2188-0.20703 0.46875-1.5273 1.0352-2.7422 0.83203-1.3555-0.22656-1.3555-1.207-1.3555-1.5312 0-0.80859 1.9688-2.6875 3.0273-3.6992 0.54688-0.52344 1.0195-0.97656 1.3398-1.3398 1.9219-2.2031 8.7422-7.0625 11.398-8.125 0.32812-0.13281 0.48828-0.50391 0.35547-0.83203s-0.50391-0.48828-0.83203-0.35547c-2.8359 1.1367-9.8359 6.125-11.887 8.4727-0.25781 0.29687-0.68359 0.70312-1.1406 1.1406-1.3477 1.0781-2.8086 1.0586-3.5039 0.48828-0.38672-0.31641-0.44922-0.75391-0.18359-1.2617 0.42188-0.74609 5.625-5.9844 6.6172-6.3242 2.6562-0.85938 4.4961-2.6523 5.5781-3.7578 1.1641-0.15234 6.2422-0.92969 9.4258-3.375 7.0664-2.2695 13.926-3.5742 26 3.168 1.3164 0.73438 2.793 1.6836 4.3516 2.6914 2.25 1.4492 4.5742 2.9453 6.8789 4.1055 0.09375 0.046874 0.19141 0.070312 0.28906 0.070312 0.23438 0 0.46094-0.12891 0.57031-0.35156 0.16016-0.31641 0.03125-0.69922-0.28516-0.85938zm-19.699 2.4375c0.51953 0.33984 0.95703 1.0859 1.0586 1.5938-2.5156 1.9492-4.1406 3.8242-4.6953 5.4297-0.1875 0.54297-0.44531 0.87891-0.76172 1-0.61328 0.23828-1.543-0.26563-2.0547-0.54688 0.35156-1.2266 0.42188-2.5039 0.42188-3.2188 0-1.1055 0.085937-2.0742 0.20312-2.9805 1.1836-0.95703 3.7422-2.6406 5.8242-1.2773zm-6.8477-5.1914c0.13672 0.074218 0.39844 0.25781 0.55078 0.38281-0.023438 1.2812-0.23047 2.4609-0.44922 3.707-0.10547 0.60937-0.21484 1.2656-0.3125 1.957-0.003906 0.019531-0.007812 0.039062-0.007812 0.058593-0.13672 1.0039-0.24609 2.0938-0.24609 3.3438 0 2.2969-0.54688 4.0703-1.4648 4.7461-0.51953 0.38281-1.1836 0.44141-2.0352 0.17578-0.082032-0.027344-0.23438-0.15234-0.26562-0.21484-0.019531-0.046875-0.050781-0.082032-0.078125-0.12109 0.4375-2.6953 0.41406-6.2812 0.28125-9.9375-0.019532-0.58203-0.039063-1.0508-0.042969-1.3867 0.039063-0.09375 0.074219-0.19141 0.11328-0.31641 0.29297-0.92969 0.90234-2.8633 3.9453-2.3984zm-7.793 4.2227c0.58594-0.71094 1.4609-1.0898 2.4609-1.0703 0.007813 0.28516 0.019532 0.61719 0.035156 0.99219 0.11719 3.2852 0.39453 10.977-1.4141 12.848-0.21875 0.22656-0.44922 0.33594-0.71875 0.33594h-1.7344c0.66797-2.4297 0.99219-5.5312 0.99219-9.3672 0-0.066406-0.015624-0.13281-0.035156-0.19141-0.003906-0.007813 0-0.015625-0.003906-0.023437-0.48047-1.3359-0.32812-2.6211 0.41016-3.5195zm-7.3203 3.5c-0.29688 0.21875-0.59766 0.44141-0.89844 0.67188-0.50781-1.0312-1.1562-1.8789-1.9688-2.5469 0.26172-0.17969 0.52734-0.35547 0.79297-0.52734 0.85937 0.58594 1.543 1.3789 2.0703 2.4023zm-9.5547 3.5547c1.332-1.3711 3.3555-3.0703 5.5859-4.6641 0.86719 0.63281 1.5391 1.4883 2.043 2.5898-0.34375 0.27734-0.68359 0.55859-1.0156 0.83984-1.4883 1.2695-2.5234 2.3008-3.1133 3.0859-2.3164 1.6445-3.832 2.1289-4.5 1.4297-0.53516-0.5625-0.83594-1.3906 1-3.2812zm2.8828-33.645c1.8203 1.6094 3.7031 3.2734 4.7578 5.7812 0 0.003906 0.007812 0.007813 0.007812 0.011719 0.042969 0.097656 0.11328 0.17578 0.20312 0.24219 0.023438 0.019532 0.042969 0.03125 0.070313 0.046876 0.023437 0.011718 0.039062 0.03125 0.0625 0.042968 0.082031 0.035156 0.16406 0.050782 0.25 0.050782 0.082031 0 0.16797-0.015626 0.25-0.050782 0.023437-0.011718 0.039062-0.027344 0.0625-0.042968 0.023437-0.015626 0.046875-0.03125 0.070312-0.046876 0.085938-0.066406 0.16016-0.14453 0.20312-0.24219 0-0.003906 0.007813-0.007813 0.007813-0.011719 0.72656-1.7148 1.8398-3.0156 2.9297-4.0898 0.98828 1.5898 2.3789 2.8438 3.7539 4.0625 1.8203 1.6094 3.7031 3.2734 4.7578 5.7812 0 0.003907 0.007812 0.007813 0.007812 0.011719 0.042969 0.097657 0.11328 0.17578 0.20313 0.24219 0.023437 0.015625 0.042968 0.03125 0.070312 0.046875 0.023438 0.011718 0.039062 0.03125 0.0625 0.042968 0.082031 0.035157 0.16406 0.050782 0.25 0.050782 0.082031 0 0.16797-0.015625 0.25-0.050782 0.023438-0.011718 0.039062-0.027343 0.0625-0.042968s0.046875-0.03125 0.070312-0.046875c0.085938-0.066407 0.16016-0.14453 0.20313-0.24219 0.003906-0.003906 0.007812-0.007812 0.007812-0.011719 1.0586-2.5039 2.9414-4.168 4.7578-5.7812 2.4258-2.1484 4.9336-4.3672 5.1094-8.4336 0.14062-3.3047-1.957-5.3828-4.0977-5.9727-2.3945-0.66016-4.7969 0.30859-6.3594 2.4805-0.61719-0.85156-1.3633-1.5078-2.1875-1.9648 0.007813-0.10156 0.019532-0.19922 0.023438-0.29688 0.14062-3.3047-1.957-5.3828-4.0977-5.9727-2.3945-0.66016-4.7969 0.30859-6.3594 2.4805-1.5625-2.168-3.9688-3.1406-6.3594-2.4805-2.1406 0.58984-4.2383 2.6641-4.0977 5.9727 0.17578 4.0664 2.6836 6.2891 5.1094 8.4336zm17.41-4.6758c0.007812 0.015625 0.023437 0.027344 0.035156 0.042969 0.023437 0.035156 0.050781 0.066406 0.082031 0.097656s0.0625 0.058594 0.097656 0.082031c0.015625 0.011719 0.027344 0.027344 0.042969 0.035157 0.019531 0.011718 0.039062 0.011718 0.058594 0.019531 0.039062 0.015625 0.082031 0.03125 0.125 0.039062 0.039062 0.007813 0.078125 0.011719 0.11719 0.011719 0.039063 0 0.078125-0.003906 0.11719-0.011719 0.042969-0.007812 0.082031-0.019531 0.125-0.039062 0.019531-0.007813 0.039062-0.007813 0.058593-0.019531 0.015626-0.007813 0.027344-0.023438 0.042969-0.035157 0.035157-0.023437 0.066407-0.050781 0.097657-0.082031s0.058593-0.0625 0.082031-0.097656c0.011719-0.015625 0.027343-0.027344 0.035156-0.042969 1.4727-2.7266 3.8594-3.1797 5.457-2.7422 2.0156 0.55469 3.2578 2.3945 3.1602 4.6836-0.15234 3.5234-2.25 5.3828-4.6797 7.5312-1.6367 1.4453-3.3125 2.9414-4.5 5.0547-1.1875-2.1133-2.8672-3.6094-4.5-5.0547-2.4297-2.1484-4.5273-4.0078-4.6797-7.5312-0.097657-2.2891 1.1406-4.1289 3.1602-4.6836 1.5977-0.44141 3.9883 0.011718 5.457 2.7422zm-18.082-8.4961c1.5977-0.44141 3.9883 0.011719 5.457 2.7422 0.007812 0.015625 0.023437 0.027343 0.035156 0.042969 0.023437 0.035156 0.050781 0.066406 0.082031 0.097656s0.0625 0.058594 0.097656 0.082031c0.015625 0.011719 0.027344 0.027344 0.042969 0.035156 0.019531 0.011719 0.039062 0.011719 0.058594 0.019531 0.039062 0.015626 0.082031 0.03125 0.125 0.039063 0.039062 0.007813 0.078125 0.011719 0.11719 0.011719 0.039063 0 0.078125-0.003906 0.11719-0.011719 0.042969-0.007813 0.082031-0.019531 0.125-0.039063 0.019531-0.007812 0.039062-0.007812 0.058593-0.019531 0.015626-0.007812 0.027344-0.023437 0.042969-0.035156 0.035157-0.023437 0.066407-0.050781 0.097657-0.082031s0.058593-0.0625 0.082031-0.097656c0.011719-0.015626 0.027343-0.027344 0.035156-0.042969 1.4727-2.7266 3.8594-3.1797 5.457-2.7422 1.9648 0.54297 3.1836 2.3047 3.1523 4.5117-0.93359-0.25391-1.9258-0.26172-2.9141 0.011719-2.1406 0.58984-4.2383 2.6641-4.0977 5.9727 0.050781 1.2148 0.32812 2.25 0.73438 3.1797-1.0078 0.96484-2.0664 2.1211-2.8984 3.5977-1.1875-2.1133-2.8672-3.6094-4.5-5.0547-2.4297-2.1484-4.5273-4.0078-4.6797-7.5312-0.097656-2.2891 1.1406-4.1289 3.1602-4.6836z"/>
<text x="0.0" y="117.5" font-size="5.0" font-weight="bold" font-family="Arbeit Regular, Helvetica, Arial-Unicode, Arial, Sans-serif" fill="#000000">Created by Zahirulizul</text><text x="0.0" y="122.5" font-size="5.0" font-weight="bold" font-family="Arbeit Regular, Helvetica, Arial-Unicode, Arial, Sans-serif" fill="#000000">from Noun Project</text></svg>