<svg xmlns="http://www.w3.org/2000/svg" version="1.1" viewBox="-5.0 -10.0 110.0 135.0">
 <path d="m42.766 71.812h-30.355c-0.44141 0-0.80078-0.35938-0.80078-0.80078v-42.879h63.184v13.496c0 0.44141 0.35938 0.80078 0.80078 0.80078s0.80078-0.35938 0.80078-0.80078v-22.391c0-1.3242-1.0781-2.3984-2.3984-2.3984h-4.9492c-0.23828-2.7734-1.707-4.8477-3.5391-4.8477-1.832 0-3.2969 2.0742-3.5391 4.8477h-4.0664c-0.23828-2.7734-1.707-4.8477-3.5391-4.8477s-3.2969 2.0742-3.5391 4.8477h-4.0664c-0.23828-2.7734-1.707-4.8477-3.5391-4.8477s-3.2969 2.0742-3.5391 4.8477h-4.0664c-0.23828-2.7734-1.707-4.8477-3.5391-4.8477s-3.2969 2.0742-3.5391 4.8477h-4.0664c-0.23828-2.7734-1.707-4.8477-3.5391-4.8477-1.832 0-3.2969 2.0742-3.5391 4.8477h-4.9883c-1.3242 0-2.3984 1.0781-2.3984 2.3984v51.773c0 1.3242 1.0781 2.3984 2.3984 2.3984h30.355c0.44141 0 0.80078-0.35938 0.80078-0.80078s-0.35938-0.80078-0.80078-0.80078zm22.742-58.223c0.82031 0 1.7266 1.3438 1.9336 3.2461h-3.8633c0.20312-1.9023 1.1094-3.2461 1.9336-3.2461zm-11.145 0c0.82031 0 1.7266 1.3438 1.9336 3.2461h-3.8633c0.20312-1.9023 1.1094-3.2461 1.9336-3.2461zm-11.141 0c0.82031 0 1.7266 1.3438 1.9336 3.2461h-3.8633c0.20312-1.9023 1.1094-3.2461 1.9336-3.2461zm-11.141 0c0.82031 0 1.7266 1.3438 1.9336 3.2461h-3.8633c0.20312-1.9023 1.1094-3.2461 1.9336-3.2461zm-11.145 0c0.82031 0 1.7266 1.3438 1.9336 3.2461h-3.8633c0.20313-1.9023 1.1094-3.2461 1.9336-3.2461zm-8.5273 4.8477h4.9883c0.23828 2.7734 1.707 4.8477 3.5391 4.8477 0.19141 0 0.38672-0.023437 0.57422-0.070312 0.42969-0.10547 0.69141-0.53516 0.58984-0.96484-0.10547-0.42969-0.53516-0.69141-0.96484-0.58984-0.066407 0.015625-0.13281 0.023438-0.19531 0.023438-0.82031 0-1.7266-1.3438-1.9336-3.2461h9.5352c0.23828 2.7734 1.707 4.8477 3.5391 4.8477 0.19141 0 0.38672-0.023437 0.57422-0.070312 0.42969-0.10547 0.69141-0.53516 0.58984-0.96484-0.10547-0.42969-0.53516-0.69141-0.96484-0.58984-0.066406 0.015625-0.13281 0.023438-0.19531 0.023438-0.82031 0-1.7266-1.3438-1.9336-3.2461h9.5352c0.23828 2.7734 1.707 4.8477 3.5391 4.8477 0.19141 0 0.38672-0.023437 0.57422-0.070312 0.42969-0.10547 0.69141-0.53516 0.58984-0.96484-0.10547-0.42969-0.53516-0.69141-0.96484-0.58984-0.066406 0.015625-0.13281 0.023438-0.19531 0.023438-0.82031 0-1.7266-1.3438-1.9336-3.2461h9.5352c0.23828 2.7734 1.707 4.8477 3.5391 4.8477 0.19141 0 0.38672-0.023437 0.57422-0.070312 0.42969-0.10547 0.69141-0.53516 0.58984-0.96484-0.10547-0.42969-0.53516-0.69141-0.96484-0.58984-0.066406 0.015625-0.13281 0.023438-0.19531 0.023438-0.82031 0-1.7266-1.3438-1.9336-3.2461h9.5352c0.23828 2.7734 1.707 4.8477 3.5391 4.8477 0.19141 0 0.38281-0.023437 0.57422-0.070312 0.42969-0.10547 0.69141-0.53516 0.58984-0.96484-0.10547-0.42969-0.53516-0.69531-0.96484-0.58984-0.066406 0.015625-0.13281 0.023438-0.19922 0.023438-0.82031 0-1.7266-1.3438-1.9336-3.2461h10.422c0.44141 0 0.80078 0.35938 0.80078 0.80078v7.293h-63.195v-7.293c0-0.44141 0.35938-0.80078 0.80078-0.80078zm15.762 15.074c0-0.44141-0.35938-0.80078-0.80078-0.80078h-6.375c-0.44141 0-0.80078 0.35937-0.80078 0.80078v6.375c0 0.44141 0.35938 0.80078 0.80078 0.80078h6.375c0.44141 0 0.80078-0.35938 0.80078-0.80078zm-1.6016 5.5742h-4.7734v-4.7734h4.7734zm14.348-5.5742c0-0.44141-0.35938-0.80078-0.80078-0.80078h-6.375c-0.44141 0-0.80078 0.35937-0.80078 0.80078v6.375c0 0.44141 0.35938 0.80078 0.80078 0.80078h6.375c0.44141 0 0.80078-0.35938 0.80078-0.80078zm-1.5977 5.5742h-4.7734v-4.7734h4.7734zm7.1719-6.375c-0.44141 0-0.80078 0.35937-0.80078 0.80078v6.375c0 0.44141 0.35938 0.80078 0.80078 0.80078h6.375c0.44141 0 0.80078-0.35938 0.80078-0.80078v-6.375c0-0.44141-0.35938-0.80078-0.80078-0.80078zm5.5742 6.375h-4.7734v-4.7734h4.7734zm7.1758-6.375c-0.44141 0-0.80078 0.35937-0.80078 0.80078v6.375c0 0.44141 0.35938 0.80078 0.80078 0.80078h6.375c0.44141 0 0.80078-0.35938 0.80078-0.80078v-6.375c0-0.44141-0.35938-0.80078-0.80078-0.80078zm5.5742 6.375h-4.7734v-4.7734h4.7734zm-36.645 7.1719c0-0.44141-0.35938-0.80078-0.80078-0.80078h-6.375c-0.44141 0-0.80078 0.35938-0.80078 0.80078v6.375c0 0.44141 0.35938 0.80078 0.80078 0.80078h6.375c0.44141 0 0.80078-0.35938 0.80078-0.80078zm-1.6016 5.5742h-4.7734v-4.7734h4.7734zm14.348-5.5742c0-0.44141-0.35938-0.80078-0.80078-0.80078h-6.375c-0.44141 0-0.80078 0.35938-0.80078 0.80078v6.375c0 0.44141 0.35938 0.80078 0.80078 0.80078h6.375c0.44141 0 0.80078-0.35938 0.80078-0.80078zm-1.5977 5.5742h-4.7734v-4.7734h4.7734zm-11.949 6.375h-6.375c-0.44141 0-0.80078 0.35938-0.80078 0.80078v6.375c0 0.44141 0.35938 0.80078 0.80078 0.80078h6.375c0.44141 0 0.80078-0.35938 0.80078-0.80078v-6.375c0-0.44141-0.35938-0.80078-0.80078-0.80078zm-0.80078 6.375h-4.7734v-4.7734h4.7734zm13.547-6.375h-6.375c-0.44141 0-0.80078 0.35938-0.80078 0.80078v6.375c0 0.44141 0.35938 0.80078 0.80078 0.80078h6.375c0.44141 0 0.80078-0.35938 0.80078-0.80078v-6.375c0-0.44141-0.35938-0.80078-0.80078-0.80078zm-0.79688 6.375h-4.7734v-4.7734h4.7734zm27.59-22.734c-12.727 0-23.078 10.355-23.078 23.082 0 12.727 10.355 23.078 23.078 23.078 12.727 0 23.082-10.355 23.082-23.078 0-12.727-10.355-23.082-23.082-23.082zm0 44.562c-11.844 0-21.48-9.6367-21.48-21.48s9.6367-21.48 21.48-21.48 21.48 9.6367 21.48 21.48-9.6367 21.48-21.48 21.48zm-4.9023-12.086c0.066407 0.34766-0.16016 0.68359-0.50391 0.75-0.74219 0.14453-1.5078 0.21875-2.2695 0.21875-6.4961 0-11.781-5.2852-11.781-11.781 0-6.4961 5.2852-11.781 11.781-11.781s11.781 5.2852 11.781 11.781c0 3.3516-1.4336 6.5547-3.9336 8.7891-0.26172 0.23438-0.66797 0.21094-0.90234-0.050781-0.23438-0.26172-0.21094-0.66797 0.050781-0.90234 2.2266-1.9922 3.5078-4.8477 3.5078-7.832 0-5.793-4.7109-10.504-10.504-10.504s-10.504 4.7109-10.504 10.504 4.7109 10.504 10.504 10.504c0.67969 0 1.3633-0.066406 2.0234-0.19531 0.34766-0.070313 0.68359 0.16016 0.75 0.50391zm23.047-4.4102c0 6.4961-5.2852 11.781-11.781 11.781-6.4961 0-11.781-5.2852-11.781-11.781 0-3.3438 1.4297-6.543 3.9219-8.7773 0.26172-0.23438 0.66797-0.21484 0.90234 0.050781 0.23438 0.26172 0.21484 0.66797-0.050781 0.90234-2.2227 1.9922-3.4961 4.8438-3.4961 7.8242 0 5.793 4.7109 10.504 10.504 10.504 5.793 0 10.504-4.7109 10.504-10.504 0-5.793-4.7109-10.504-10.504-10.504-0.67969 0-1.3633 0.066406-2.0234 0.19531-0.34766 0.066406-0.68359-0.16016-0.75-0.50391-0.066406-0.34766 0.16016-0.68359 0.50391-0.75 0.74219-0.14453 1.5078-0.21875 2.2695-0.21875 6.4961 0 11.781 5.2852 11.781 11.781zm-11.781 7.8398c-4.3242 0-7.8398-3.5156-7.8398-7.8398 0-0.26172 0.039062-0.51953 0.0625-0.77734 0.019531 0.019531 0.03125 0.046875 0.054687 0.0625 0.28125 0.21484 0.67969 0.16406 0.89844-0.11328 1.2461-1.6094 1.9023-3.5352 1.9023-5.5742 0-5.0273-4.0898-9.1172-9.1172-9.1172s-9.1172 4.0898-9.1172 9.1172c0 5.0273 4.0898 9.1172 9.1172 9.1172 0.51562 0 1.0352-0.042968 1.543-0.12891 0.34766-0.058594 0.58203-0.39062 0.52344-0.73828-0.058593-0.34766-0.39062-0.58203-0.73828-0.52344-0.43359 0.074219-0.88281 0.11328-1.3281 0.11328-4.3242 0-7.8398-3.5156-7.8398-7.8398s3.5156-7.8398 7.8398-7.8398 7.8398 3.5156 7.8398 7.8398c0 0.21875-0.035157 0.42969-0.050781 0.64453l-0.003907-0.003906c-0.27734-0.21875-0.67969-0.17188-0.89844 0.10547-1.2891 1.625-1.9688 3.582-1.9688 5.6562 0 5.0273 4.0898 9.1172 9.1172 9.1172 5.0273 0 9.1172-4.0898 9.1172-9.1172 0-5.0273-4.0898-9.1172-9.1172-9.1172-0.58594 0-1.1758 0.054687-1.7461 0.16797-0.34766 0.066406-0.57422 0.40234-0.50781 0.75s0.40234 0.57422 0.75 0.50781c0.49219-0.09375 0.99609-0.14453 1.5-0.14453 4.3242 0 7.8398 3.5156 7.8398 7.8398s-3.5156 7.8398-7.8398 7.8398zm-6.4961-12.18c-0.21875 0.80859-0.57031 1.5742-1.043 2.2812 0.21875-0.80859 0.57031-1.5742 1.043-2.2812zm1.5234-11.633c0.85156 0.75391 1.6562 1.4648 2.1172 2.5547 0 0.003906 0.007812 0.007812 0.007812 0.011718 0.042969 0.097657 0.11328 0.17578 0.20312 0.24219 0.023438 0.019531 0.042969 0.03125 0.070313 0.046875 0.023437 0.011719 0.039062 0.03125 0.0625 0.042969 0.082031 0.035156 0.16406 0.050781 0.25 0.050781 0.082031 0 0.16797-0.015625 0.25-0.050781 0.023437-0.011719 0.039062-0.027344 0.0625-0.042969 0.023437-0.015625 0.046875-0.03125 0.070312-0.046875 0.085938-0.066406 0.16016-0.14453 0.20312-0.24219 0.003906-0.003906 0.007813-0.007812 0.007813-0.011718 0.46094-1.0898 1.2656-1.8008 2.1172-2.5547 1.1797-1.043 2.3945-2.1211 2.4844-4.1523 0.0625-1.4883-0.80078-2.7422-2.1523-3.1133-1.1211-0.30859-2.2344 0.0625-3.0391 0.94531-0.80469-0.88281-1.918-1.2539-3.0391-0.94531-1.3516 0.37109-2.2148 1.6211-2.1523 3.1133 0.085937 2.0312 1.3047 3.1094 2.4844 4.1523zm0.007813-6.0312c0.64844-0.17969 1.5508 0.015625 2.1367 1.1016 0.007813 0.015625 0.023438 0.027343 0.035157 0.042969 0.023437 0.035156 0.050781 0.066406 0.082031 0.097656s0.0625 0.058594 0.097656 0.082031c0.015625 0.011719 0.027344 0.027344 0.042969 0.035156 0.019531 0.011719 0.039063 0.011719 0.0625 0.019531 0.039063 0.015626 0.082031 0.03125 0.125 0.039063 0.039063 0.007813 0.078125 0.011719 0.11719 0.011719 0.039063 0 0.078126-0.003906 0.12109-0.011719 0.042969-0.007813 0.082032-0.019531 0.125-0.039063 0.019532-0.007812 0.039063-0.007812 0.058594-0.019531 0.015625-0.007812 0.027344-0.023437 0.042969-0.035156 0.035156-0.023437 0.066406-0.050781 0.097656-0.082031s0.058594-0.0625 0.082031-0.097656c0.011719-0.015626 0.027344-0.027344 0.035156-0.042969 0.58594-1.0859 1.4883-1.2812 2.1367-1.1016 0.58984 0.16016 1.2578 0.73828 1.2109 1.8242-0.0625 1.4883-0.98438 2.3047-2.0547 3.2461-0.62891 0.55469-1.3086 1.1719-1.8594 1.9648-0.55078-0.79687-1.2305-1.4102-1.8594-1.9648-1.0664-0.94531-1.9883-1.7617-2.0547-3.2461-0.046875-1.0859 0.625-1.6641 1.2109-1.8242z"/>
<text x="0.0" y="117.5" font-size="5.0" font-weight="bold" font-family="Arbeit Regular, Helvetica, Arial-Unicode, Arial, Sans-serif" fill="#000000">Created by Zahirulizul</text><text x="0.0" y="122.5" font-size="5.0" font-weight="bold" font-family="Arbeit Regular, Helvetica, Arial-Unicode, Arial, Sans-serif" fill="#000000">from Noun Project</text></svg>