<svg xmlns="http://www.w3.org/2000/svg" version="1.1" viewBox="-5.0 -10.0 110.0 135.0">
 <path d="m89.668 44.754-8.6836-9.8047c-0.14062-0.15625-0.34766-0.23438-0.55469-0.21094l-6 0.72266c-0.35156 0.042968-0.60156 0.35937-0.55859 0.71094 0.007812 0.058594 0.03125 0.10547 0.050781 0.15625l-1.4922 14.402c0 0.015625 0.003906 0.027343 0.003906 0.042969 0 0.039062 0.003906 0.074218 0.007812 0.11328 0.003906 0.03125 0.003906 0.058593 0.011719 0.089843 0.003906 0.019532 0.015625 0.035157 0.023437 0.050782 0.003907 0.011718 0.003907 0.027344 0.011719 0.039062 0.007813 0.015625 0.019531 0.019532 0.027344 0.03125 0.019531 0.035156 0.035156 0.066406 0.058594 0.097656 0.003906 0.007813 0.007812 0.015626 0.011719 0.023438 0.019531 0.023438 0.050781 0.035156 0.074218 0.054688 0.015625 0.015624 0.03125 0.03125 0.046875 0.042968 0.011719 0.007813 0.015625 0.015625 0.027344 0.023438 0.003906 0 0.003906 0.003906 0.007813 0.007812 0.007812 0.003906 0.019531 0.003906 0.027343 0.007813 0.089844 0.046875 0.18359 0.078125 0.28516 0.082031h0.011718l14.492 0.25781h0.011718c0.11328 0 0.21875-0.039062 0.31641-0.09375 0.011719-0.007812 0.027343-0.011718 0.039062-0.019531 0.085938-0.058593 0.15625-0.14062 0.20312-0.23438 0.003906-0.007812 0.015625-0.015625 0.019532-0.023437 0.003906-0.007813 0-0.019531 0.003906-0.03125 0.007812-0.023438 0.023437-0.042969 0.03125-0.066407l1.6172-5.8789c0.058594-0.20703 0.003907-0.43359-0.13672-0.59375zm-14.621-6.8672 2.9258 3.3008-3.9648 6.75 1.043-10.051zm3.8203 4.3086 3.2461 3.6641-7.4492 3.4883zm1.1523-0.625 3.8828-0.58594-1.0508 3.7852-2.8359-3.1992zm3.5039-1.8203-4.5156 0.67969-3.3828-3.8203 4.625-0.55859 3.2773 3.6992zm-7.6875 10.461 7.1562-3.3516 3.1289 3.5352-10.289-0.18359zm11.43-0.46094-3.3984-3.8359 1.2188-4.4023 3.3945 3.832zm-28.438-9.0898c4.875 0.22656 9.4727 1.918 13.305 4.8984 0.34766 0.26953 0.41016 0.77344 0.14063 1.1211-0.15625 0.20312-0.39453 0.30859-0.63281 0.30859-0.17188 0-0.34375-0.054687-0.49219-0.16797-3.5664-2.7734-7.8555-4.3516-12.395-4.5625-0.44141-0.019531-0.78125-0.39453-0.76172-0.83594 0.019531-0.44141 0.39453-0.78516 0.83594-0.76172zm19.457 12.086c2.5469 4.5938 3.4727 9.9922 2.6094 15.203-0.875 5.2852-3.5703 10.16-7.5898 13.719-4.3281 3.832-9.793 5.9023-15.527 5.9023-0.48047 0-0.96484-0.015624-1.4492-0.042968-6.2578-0.37891-11.992-3.1719-16.148-7.8633-8.5781-9.6875-7.6797-24.547 2.0078-33.125 1.6406-1.4531 3.4648-2.6641 5.4219-3.6016 0.39844-0.19141 0.875-0.023438 1.0664 0.375 0.19141 0.39844 0.023438 0.875-0.375 1.0664-1.8242 0.875-3.5234 2.0039-5.0508 3.3594-9.0234 7.9961-9.8633 21.84-1.8711 30.867 4.3164 4.8711 10.336 7.3555 16.379 7.3594 5.1562 0 10.332-1.8086 14.484-5.4883 7.6094-6.7383 9.5625-18.074 4.6406-26.949-0.21484-0.38672-0.074218-0.875 0.3125-1.0859 0.38672-0.21484 0.87109-0.074218 1.0859 0.3125zm-29.785-2.6172c0.26172 0.35547 0.18359 0.85547-0.17188 1.1172-0.39453 0.28906-0.78125 0.60156-1.1484 0.92969-6.5781 5.8242-7.1875 15.918-1.3633 22.492 2.8203 3.1875 6.7148 5.082 10.965 5.3398 4.25 0.25781 8.3438-1.1562 11.527-3.9766 3.1875-2.8203 5.082-6.7148 5.3398-10.965 0.25781-4.25-1.1562-8.3438-3.9766-11.527-2.7109-3.0625-6.4453-4.9453-10.516-5.3047-0.44141-0.039063-0.76562-0.42578-0.72656-0.86719 0.039062-0.44141 0.42578-0.76563 0.86719-0.72656 4.4805 0.39844 8.5898 2.4727 11.574 5.8398 3.1055 3.5078 4.6602 8.0117 4.375 12.688-0.28125 4.6758-2.3711 8.9609-5.875 12.066-3.2344 2.8633-7.3203 4.4102-11.602 4.4102-0.35938 0-0.72266-0.011719-1.082-0.03125-4.6758-0.28125-8.9609-2.3711-12.066-5.875-6.4102-7.2383-5.7383-18.34 1.5-24.754 0.40625-0.35938 0.82812-0.70312 1.2656-1.0195 0.35547-0.26172 0.85547-0.18359 1.1172 0.17188zm-32.062 10.762c-8.5781-9.6875-7.6797-24.547 2.0078-33.125 4.6914-4.1562 10.723-6.2383 16.977-5.8555 6.2578 0.37891 11.992 3.1719 16.148 7.8633 4.1562 4.6914 6.2383 10.723 5.8594 16.977-0.37891 6.2578-3.1719 11.992-7.8633 16.148-1.6953 1.5039-3.5859 2.7461-5.6211 3.6992-0.39844 0.1875-0.875 0.015625-1.0625-0.38672-0.1875-0.39844-0.015624-0.875 0.38672-1.0625 1.8945-0.88672 3.6562-2.0469 5.2383-3.4453 4.3711-3.8711 6.9727-9.2148 7.3281-15.047 0.35156-5.8281-1.5859-11.449-5.457-15.82-3.8711-4.3711-9.2148-6.9727-15.047-7.3281-5.8281-0.35156-11.449 1.5859-15.82 5.457-9.0273 7.9961-9.8633 21.84-1.8711 30.867 3.9062 4.4102 9.3008 7.0156 15.188 7.3359 0.44141 0.023437 0.77734 0.40234 0.75391 0.84375-0.023437 0.42578-0.375 0.75781-0.79688 0.75781h-0.042968c-6.3164-0.34375-12.102-3.1367-16.297-7.8711zm33.469-14.594c0.25781-4.25-1.1562-8.3438-3.9766-11.527-2.8203-3.1875-6.7148-5.082-10.965-5.3398-4.25-0.25781-8.3438 1.1562-11.527 3.9766-6.5781 5.8242-7.1875 15.918-1.3633 22.492 2.6953 3.043 6.4062 4.9258 10.453 5.3008 0.44141 0.039062 0.76172 0.42969 0.72266 0.87109-0.039062 0.41406-0.38672 0.72656-0.79688 0.72656-0.023437 0-0.050781 0-0.074219-0.003906-4.4531-0.41406-8.5391-2.4844-11.504-5.832-3.1055-3.5078-4.6602-8.0117-4.375-12.688 0.28125-4.6758 2.3711-8.9609 5.875-12.066 3.5078-3.1055 8.0117-4.6602 12.688-4.375 4.6758 0.28125 8.9609 2.3711 12.066 5.875 3.1055 3.5078 4.6602 8.0117 4.375 12.688-0.28125 4.6758-2.3711 8.9609-5.875 12.066-0.30469 0.26953-0.625 0.53516-0.94922 0.78125-0.35156 0.26953-0.85156 0.20312-1.1211-0.14453-0.26953-0.35156-0.20312-0.85156 0.14453-1.1211 0.29297-0.22656 0.58203-0.46484 0.86328-0.71094 3.1875-2.8203 5.082-6.7148 5.3398-10.965zm3.4648-19.68c0.12891 2.9766 1.9453 4.5859 3.7031 6.1406 1.2812 1.1328 2.6094 2.3086 3.3438 4.0547 0 0.003906 0.007812 0.007812 0.007812 0.011719 0.042969 0.097656 0.11328 0.17578 0.20312 0.24219 0.023438 0.019532 0.042969 0.03125 0.070313 0.046875 0.023437 0.011719 0.039062 0.03125 0.0625 0.042969 0.082031 0.035156 0.16406 0.050781 0.25 0.050781 0.082031 0 0.16797-0.015625 0.25-0.050781 0.023437-0.011719 0.039062-0.027344 0.0625-0.042969 0.023437-0.015625 0.046875-0.03125 0.070312-0.046875 0.085938-0.066406 0.16016-0.14453 0.20312-0.24219 0.003906-0.003907 0.007813-0.007813 0.007813-0.011719 0.73828-1.7461 2.0625-2.9219 3.3438-4.0547 1.7578-1.5547 3.5781-3.1641 3.7031-6.1406 0.089844-2.1289-1.1367-3.9141-3.0547-4.4414-1.7109-0.47266-3.4219 0.17578-4.582 1.6484-1.1602-1.4727-2.8711-2.1172-4.582-1.6484-1.918 0.52734-3.1484 2.3125-3.0547 4.4414zm3.3945-3.2109c1.0742-0.29688 2.6836 0.015625 3.6797 1.8633 0.007813 0.015625 0.023438 0.027344 0.035157 0.042969 0.023437 0.035156 0.050781 0.066406 0.082031 0.097656s0.0625 0.058594 0.097656 0.082032c0.015625 0.011718 0.027344 0.027343 0.042969 0.035156 0.019531 0.011718 0.039063 0.011718 0.058594 0.019531 0.039062 0.015625 0.082031 0.03125 0.125 0.039063 0.039062 0.007812 0.078125 0.011718 0.11719 0.011718 0.039063 0 0.078125-0.003906 0.11719-0.011718 0.042968-0.007813 0.082031-0.019532 0.125-0.039063 0.019531-0.007813 0.039062-0.007813 0.058594-0.019531 0.015624-0.007813 0.027343-0.023438 0.042968-0.035156 0.035156-0.023438 0.066406-0.050782 0.097656-0.082032s0.058594-0.0625 0.082032-0.097656c0.011718-0.015625 0.027344-0.027344 0.035156-0.042969 0.99609-1.8516 2.6055-2.1602 3.6797-1.8633 1.0273 0.28125 2.1992 1.2773 2.1172 3.1523-0.10547 2.4336-1.5742 3.7344-3.2734 5.2383-1.1094 0.98047-2.2383 1.9922-3.0859 3.3828-0.84766-1.3906-1.9805-2.4023-3.0859-3.3828-1.6992-1.5039-3.168-2.8047-3.2734-5.2383-0.082031-1.875 1.0898-2.8711 2.1172-3.1523zm-8.1562-3.9531c0.80078 0.71094 1.5586 1.3789 1.9883 2.3984 0 0.003907 0.007813 0.007813 0.007813 0.011719 0.042969 0.097657 0.11328 0.17578 0.20312 0.24219 0.023437 0.019531 0.042968 0.03125 0.070312 0.046875 0.023438 0.011718 0.039063 0.03125 0.0625 0.042968 0.082032 0.035157 0.16406 0.050782 0.25 0.050782 0.082032 0 0.16797-0.015625 0.25-0.050782 0.023438-0.011718 0.039063-0.027343 0.0625-0.042968 0.023438-0.015625 0.046875-0.03125 0.070313-0.046875 0.085937-0.066407 0.16016-0.14453 0.20312-0.24219 0-0.003906 0.007812-0.007812 0.007812-0.011719 0.42969-1.0195 1.1875-1.6914 1.9883-2.3984 1.1172-0.98828 2.2734-2.0117 2.3555-3.9453 0.0625-1.4258-0.76562-2.6211-2.0586-2.9766-1.0586-0.29297-2.1133 0.050781-2.8789 0.87109-0.76562-0.82031-1.8203-1.1641-2.8789-0.87109-1.293 0.35547-2.1172 1.5508-2.0586 2.9766 0.082032 1.9336 1.2383 2.957 2.3555 3.9453zm0.039063-5.6875c0.59766-0.16406 1.4336 0.015625 1.9766 1.0234 0.007812 0.015626 0.023438 0.027344 0.035156 0.042969 0.023438 0.035157 0.050782 0.066407 0.082032 0.097657s0.0625 0.058593 0.097656 0.082031c0.015625 0.011719 0.027344 0.027343 0.042968 0.035156 0.019532 0.011719 0.039063 0.011719 0.058594 0.019531 0.039063 0.015625 0.082032 0.03125 0.125 0.039063 0.039063 0.007812 0.078125 0.011719 0.11719 0.011719 0.039062 0 0.078125-0.003907 0.12109-0.011719 0.042968-0.007813 0.082031-0.019531 0.125-0.039063 0.019531-0.007812 0.039062-0.007812 0.058593-0.019531 0.015625-0.007813 0.027344-0.023437 0.042969-0.035156 0.035156-0.023438 0.066406-0.050781 0.097656-0.082031s0.058594-0.0625 0.082032-0.097657c0.011718-0.015625 0.027343-0.027343 0.035156-0.042969 0.54297-1.0078 1.375-1.1875 1.9766-1.0234 0.54297 0.14844 1.1602 0.67969 1.1172 1.6875-0.058594 1.3906-0.88281 2.1172-1.9258 3.043-0.58203 0.51562-1.2148 1.0898-1.7305 1.8242-0.51562-0.73437-1.1484-1.3086-1.7305-1.8242-1.043-0.92188-1.8672-1.6523-1.9258-3.043-0.042969-1.0039 0.57422-1.5391 1.1172-1.6875zm-16.172 56.188c-1.7109-0.47266-3.4219 0.17578-4.582 1.6484-1.1602-1.4727-2.8711-2.1172-4.582-1.6484-1.918 0.52734-3.1484 2.3125-3.0547 4.4414 0.12891 2.9766 1.9453 4.5859 3.7031 6.1406 1.2812 1.1328 2.6094 2.3086 3.3438 4.0547 0 0.003906 0.007812 0.007812 0.007812 0.011718 0.042969 0.097657 0.11328 0.17578 0.20312 0.24219 0.023437 0.019531 0.042969 0.03125 0.070313 0.046875 0.023437 0.011719 0.039062 0.03125 0.0625 0.042969 0.082031 0.035156 0.16406 0.050781 0.25 0.050781 0.082031 0 0.16797-0.015625 0.25-0.050781 0.023437-0.011719 0.039062-0.027344 0.0625-0.042969 0.023437-0.015625 0.046874-0.03125 0.070312-0.046875 0.085938-0.066406 0.16016-0.14453 0.20312-0.24219 0-0.003906 0.007813-0.007812 0.007813-0.011718 0.73828-1.7461 2.0625-2.918 3.3438-4.0547 1.7578-1.5547 3.5781-3.1641 3.7031-6.1406 0.089844-2.1289-1.1367-3.9141-3.0547-4.4414zm-1.4961 9.625c-1.1094 0.98047-2.2383 1.9922-3.0859 3.3828-0.84766-1.3906-1.9805-2.4023-3.0859-3.3828-1.6992-1.5039-3.168-2.8047-3.2734-5.2383-0.082031-1.875 1.0898-2.8711 2.1172-3.1523 1.0742-0.29688 2.6836 0.015625 3.6797 1.8633 0.007813 0.015625 0.023438 0.027344 0.035157 0.042969 0.023437 0.035156 0.050781 0.066406 0.082031 0.097656s0.0625 0.058594 0.097656 0.082032c0.015625 0.011718 0.027344 0.027343 0.042969 0.035156 0.019531 0.011718 0.039062 0.011718 0.058594 0.019531 0.039062 0.015625 0.082031 0.03125 0.125 0.039063 0.039062 0.007812 0.078124 0.011718 0.12109 0.011718 0.039063 0 0.078125-0.003906 0.11719-0.011718 0.042969-0.007813 0.082031-0.019532 0.125-0.039063 0.019531-0.007813 0.039062-0.007813 0.058593-0.019531 0.015626-0.007813 0.027344-0.023438 0.042969-0.035156 0.035157-0.023438 0.066407-0.050782 0.097657-0.082032s0.058593-0.0625 0.082031-0.097656c0.011719-0.015625 0.027343-0.027344 0.035156-0.042969 0.99609-1.8516 2.6055-2.1602 3.6797-1.8633 1.0273 0.28125 2.1992 1.2773 2.1172 3.1523-0.10547 2.4336-1.5742 3.7344-3.2734 5.2383zm-12.992-15.062c-1.0586-0.29297-2.1133 0.050781-2.8789 0.87109-0.76562-0.82031-1.8203-1.1641-2.8789-0.87109-1.293 0.35547-2.1172 1.5508-2.0586 2.9766 0.082031 1.9336 1.2383 2.957 2.3555 3.9453 0.80078 0.71094 1.5586 1.3789 1.9883 2.3984 0 0.003906 0.007813 0.007812 0.007813 0.011718 0.042968 0.097656 0.11328 0.17578 0.20312 0.24219 0.023438 0.015625 0.042969 0.03125 0.070313 0.046875 0.023437 0.011719 0.039063 0.03125 0.0625 0.042969 0.082031 0.035156 0.16406 0.050781 0.25 0.050781 0.082031 0 0.16797-0.015625 0.25-0.050781 0.023437-0.011719 0.039063-0.027344 0.0625-0.042969s0.046875-0.03125 0.070313-0.046875c0.085937-0.066406 0.16016-0.14453 0.20312-0.24219 0.003907-0.003906 0.007813-0.007812 0.007813-0.011718 0.42969-1.0195 1.1875-1.6914 1.9883-2.3984 1.1172-0.98828 2.2734-2.0117 2.3555-3.9453 0.0625-1.4258-0.76562-2.6211-2.0586-2.9766zm-1.1484 5.9609c-0.58203 0.51563-1.2148 1.0898-1.7305 1.8242-0.51562-0.73438-1.1484-1.3086-1.7305-1.8242-1.043-0.92187-1.8672-1.6523-1.9258-3.043-0.042969-1.0039 0.57422-1.5391 1.1172-1.6875 0.59766-0.16406 1.4336 0.015625 1.9766 1.0234 0.007813 0.015625 0.027344 0.027344 0.035156 0.042969 0.023438 0.035156 0.050781 0.066406 0.082031 0.097656s0.0625 0.058594 0.097657 0.082032c0.015625 0.011718 0.027343 0.027343 0.042969 0.035156 0.019531 0.011718 0.039062 0.011718 0.058593 0.019531 0.039063 0.015625 0.082031 0.03125 0.125 0.039063 0.039063 0.007812 0.078125 0.011718 0.12109 0.011718 0.039063 0 0.078125-0.003906 0.11719-0.011718 0.042969-0.007813 0.085938-0.019532 0.125-0.039063 0.019532-0.007813 0.039063-0.007813 0.058594-0.019531 0.015625-0.007813 0.027344-0.023438 0.042969-0.035156 0.035156-0.023438 0.066406-0.050782 0.097656-0.082032s0.058594-0.0625 0.082031-0.097656c0.011719-0.015625 0.027344-0.027344 0.035157-0.042969 0.54297-1.0078 1.375-1.1875 1.9766-1.0234 0.54297 0.14844 1.1602 0.67969 1.1172 1.6875-0.058594 1.3906-0.88281 2.1172-1.9258 3.043z"/>
<text x="0.0" y="117.5" font-size="5.0" font-weight="bold" font-family="Arbeit Regular, Helvetica, Arial-Unicode, Arial, Sans-serif" fill="#000000">Created by Zahirulizul</text><text x="0.0" y="122.5" font-size="5.0" font-weight="bold" font-family="Arbeit Regular, Helvetica, Arial-Unicode, Arial, Sans-serif" fill="#000000">from Noun Project</text></svg>